<?xml version="1.0" standalone="no"?>
<!DOCTYPE svg PUBLIC "-//W3C//DTD SVG 20010904//EN"
 "http://www.w3.org/TR/2001/REC-SVG-20010904/DTD/svg10.dtd">
<svg version="1.0" xmlns="http://www.w3.org/2000/svg"
 width="128.000000pt" height="128.000000pt" viewBox="0 0 128.000000 128.000000"
 preserveAspectRatio="xMidYMid meet">

<g transform="translate(0.000000,128.000000) scale(0.100000,-0.100000)"
fill="#000000" stroke="none">
<path d="M105 1266 c-37 -17 -80 -62 -94 -99 -15 -39 -15 -1015 0 -1054 14
-38 57 -83 96 -99 47 -20 1019 -20 1066 0 39 16 82 61 96 99 7 19 11 199 11
528 0 402 -3 506 -14 532 -16 39 -61 82 -99 96 -45 17 -1023 14 -1062 -3z
m1072 -46 c64 -39 63 -27 63 -582 0 -481 -1 -504 -20 -535 -39 -64 -27 -63
-580 -63 -553 0 -541 -1 -580 63 -19 31 -20 54 -20 535 0 555 -1 543 63 582
31 19 54 20 537 20 483 0 506 -1 537 -20z"/>
<path d="M250 994 l0 -187 80 5 c95 6 124 22 158 88 28 56 29 138 2 198 -26
56 -78 81 -172 82 l-68 0 0 -186z m155 114 c80 -69 32 -248 -65 -248 l-30 0 0
135 0 135 34 0 c22 0 45 -9 61 -22z"/>
<path d="M624 1081 c-11 -5 -33 -23 -47 -41 -22 -26 -27 -42 -27 -86 0 -30 7
-69 16 -85 26 -51 103 -72 173 -48 24 9 31 16 29 33 -2 15 -9 20 -23 18 -11
-2 -34 -6 -52 -9 -25 -4 -37 0 -57 21 -48 47 -37 56 69 56 l95 0 0 40 c0 60
-41 101 -106 106 -27 2 -58 0 -70 -5z m96 -61 c33 -33 24 -40 -45 -40 -62 0
-65 1 -55 20 22 42 69 51 100 20z"/>
<path d="M824 1048 c7 -18 33 -79 57 -136 29 -68 48 -102 57 -100 14 3 121
229 122 256 0 7 -12 12 -29 12 -26 0 -31 -6 -57 -75 -16 -41 -31 -75 -34 -75
-3 0 -18 34 -34 75 -28 73 -30 75 -62 75 l-34 0 14 -32z"/>
<path d="M100 394 l0 -187 80 5 c95 6 124 22 158 88 28 56 29 138 2 198 -26
56 -78 81 -172 82 l-68 0 0 -186z m155 114 c80 -69 32 -248 -65 -248 l-30 0 0
135 0 135 34 0 c22 0 45 -9 61 -22z"/>
<path d="M455 404 c-38 -97 -71 -180 -73 -185 -2 -5 12 -9 32 -9 31 0 36 4 47
35 13 35 13 35 75 35 60 0 61 0 70 -32 8 -29 14 -33 47 -36 20 -2 37 -2 37 0
0 2 -31 84 -68 183 -41 110 -73 181 -82 183 -11 2 -35 -48 -85 -174z m103 -14
l21 -60 -44 0 -44 0 21 60 c11 33 21 60 23 60 2 0 12 -27 23 -60z"/>
<path d="M641 558 c7 -13 34 -60 61 -105 47 -79 48 -84 48 -162 l0 -81 30 0
30 0 0 81 c0 80 1 82 55 174 30 52 55 99 55 104 0 6 -13 11 -29 11 -27 0 -34
-8 -68 -70 -21 -38 -40 -70 -43 -70 -3 0 -23 32 -44 70 -35 66 -39 70 -72 70
-33 0 -34 -1 -23 -22z"/>
<path d="M960 555 c0 -24 2 -25 70 -25 39 0 70 -2 70 -5 0 -3 -31 -68 -70
-145 -38 -77 -70 -147 -70 -155 0 -13 19 -15 115 -15 l115 0 0 25 c0 24 -2 25
-75 25 l-75 0 75 150 c41 82 75 154 75 160 0 6 -44 10 -115 10 l-115 0 0 -25z"/>
</g>
</svg>
